<svg id="svg" version="1.1" width="400" height="400" viewBox="0 0 400 400" xmlns="http://www.w3.org/2000/svg" xmlns:xlink="http://www.w3.org/1999/xlink" ><g id="svgg"><path id="path0" d="M191.552 113.781 C 191.452 113.881,189.682 114.168,187.618 114.419 C 178.047 115.583,162.607 120.922,156.400 125.215 C 155.850 125.595,154.680 126.308,153.800 126.800 C 145.560 131.403,131.403 145.560,126.800 153.800 C 126.308 154.680,125.595 155.850,125.215 156.400 C 111.811 175.781,109.949 211.880,121.125 235.685 C 121.775 237.068,122.631 238.920,123.028 239.800 C 123.425 240.680,124.405 242.390,125.206 243.600 C 126.007 244.810,126.762 246.070,126.884 246.400 C 127.853 249.019,137.564 260.362,143.000 265.224 C 149.720 271.235,161.144 278.129,168.800 280.793 C 169.570 281.061,170.560 281.424,171.000 281.600 C 184.995 287.185,206.730 288.015,222.600 283.571 C 225.020 282.893,227.408 282.241,227.906 282.122 C 228.404 282.002,228.910 281.746,229.030 281.552 C 229.149 281.359,229.599 281.200,230.029 281.200 C 230.459 281.200,231.123 281.031,231.505 280.824 C 231.887 280.617,232.999 280.122,233.976 279.724 C 253.282 271.856,271.856 253.282,279.724 233.976 C 280.122 232.999,280.617 231.887,280.824 231.505 C 281.031 231.123,281.200 230.459,281.200 230.029 C 281.200 229.599,281.359 229.149,281.552 229.030 C 281.746 228.910,282.002 228.404,282.122 227.906 C 282.241 227.408,282.893 225.020,283.571 222.600 C 288.015 206.730,287.185 184.995,281.600 171.000 C 281.424 170.560,281.061 169.570,280.793 168.800 C 278.129 161.144,271.235 149.720,265.224 143.000 C 260.362 137.564,249.019 127.853,246.400 126.884 C 246.070 126.762,244.810 126.007,243.600 125.206 C 242.390 124.405,240.680 123.425,239.800 123.028 C 238.920 122.631,237.068 121.775,235.685 121.125 C 225.160 116.184,212.708 113.600,199.419 113.600 C 195.192 113.600,191.652 113.682,191.552 113.781 " stroke="none" fill="#dc0424" fill-rule="evenodd"></path><path id="path1" d="M182.389 0.134 C 182.273 0.256,180.604 0.390,178.679 0.432 C 176.754 0.475,175.084 0.665,174.966 0.855 C 174.849 1.045,173.514 1.200,172.000 1.200 C 170.486 1.200,169.136 1.380,169.000 1.600 C 168.864 1.820,167.763 2.000,166.553 2.000 C 165.188 2.000,164.447 2.152,164.600 2.400 C 164.753 2.648,164.012 2.800,162.647 2.800 C 161.437 2.800,160.336 2.980,160.200 3.200 C 160.064 3.420,159.243 3.600,158.376 3.600 C 157.509 3.600,156.800 3.780,156.800 4.000 C 156.800 4.220,156.001 4.400,155.024 4.400 C 154.047 4.400,153.136 4.580,153.000 4.800 C 152.864 5.020,152.144 5.200,151.400 5.200 C 150.656 5.200,149.936 5.380,149.800 5.600 C 149.664 5.820,149.034 6.000,148.400 6.000 C 147.766 6.000,147.136 6.180,147.000 6.400 C 146.864 6.620,146.234 6.800,145.600 6.800 C 144.966 6.800,144.336 6.980,144.200 7.200 C 144.064 7.420,143.434 7.600,142.800 7.600 C 142.166 7.600,141.536 7.780,141.400 8.000 C 141.264 8.220,140.623 8.400,139.976 8.400 C 139.329 8.400,138.800 8.580,138.800 8.800 C 138.800 9.020,138.476 9.200,138.080 9.200 C 137.684 9.200,137.189 9.363,136.980 9.562 C 136.771 9.762,135.727 10.039,134.661 10.179 C 133.594 10.319,132.298 10.710,131.782 11.049 C 131.265 11.387,130.788 11.633,130.721 11.595 C 130.599 11.526,129.328 12.006,126.886 13.042 C 126.164 13.349,125.219 13.600,124.786 13.600 C 124.354 13.600,124.000 13.736,124.000 13.902 C 124.000 14.200,121.475 15.200,120.500 15.288 C 120.225 15.313,120.000 15.483,120.000 15.667 C 120.000 15.850,119.640 16.000,119.200 16.000 C 118.760 16.000,118.400 16.180,118.400 16.400 C 118.400 16.620,118.040 16.800,117.600 16.800 C 117.160 16.800,116.800 16.980,116.800 17.200 C 116.800 17.420,116.528 17.600,116.195 17.600 C 115.862 17.600,115.277 17.768,114.895 17.974 C 114.513 18.179,113.615 18.583,112.900 18.871 C 112.185 19.160,111.600 19.531,111.600 19.698 C 111.600 19.864,111.240 20.000,110.800 20.000 C 110.360 20.000,110.000 20.180,110.000 20.400 C 110.000 20.620,109.640 20.800,109.200 20.800 C 108.760 20.800,108.400 20.938,108.400 21.106 C 108.400 21.274,107.725 21.718,106.900 22.094 C 105.391 22.780,103.172 24.028,102.800 24.400 C 102.355 24.845,100.778 25.600,100.294 25.600 C 100.009 25.600,99.522 25.953,99.211 26.385 C 98.899 26.817,98.121 27.286,97.482 27.426 C 96.842 27.567,95.977 28.023,95.559 28.441 C 95.142 28.858,94.530 29.200,94.200 29.200 C 93.870 29.200,93.600 29.380,93.600 29.600 C 93.600 29.820,93.364 30.000,93.075 30.000 C 92.787 30.000,92.164 30.360,91.692 30.800 C 91.220 31.240,90.596 31.600,90.305 31.600 C 90.014 31.600,89.517 31.960,89.200 32.400 C 88.883 32.840,88.343 33.200,88.000 33.200 C 87.657 33.200,87.117 33.560,86.800 34.000 C 86.483 34.440,86.038 34.800,85.812 34.801 C 85.585 34.801,84.770 35.341,84.000 36.000 C 83.230 36.659,82.415 37.199,82.188 37.199 C 81.962 37.200,81.517 37.560,81.200 38.000 C 80.883 38.440,80.422 38.800,80.177 38.800 C 79.931 38.800,78.936 39.522,77.965 40.404 C 76.994 41.286,75.818 42.349,75.352 42.767 C 74.885 43.184,73.985 43.801,73.352 44.138 C 72.718 44.475,71.184 45.706,69.942 46.875 C 68.700 48.044,67.275 49.270,66.775 49.600 C 66.275 49.930,64.591 51.513,63.033 53.118 C 59.451 56.807,56.807 59.451,53.118 63.033 C 51.513 64.591,49.930 66.275,49.600 66.775 C 49.270 67.275,48.044 68.700,46.875 69.942 C 45.706 71.184,44.475 72.718,44.138 73.352 C 43.801 73.985,43.184 74.885,42.767 75.352 C 42.349 75.818,41.286 76.994,40.404 77.965 C 39.522 78.936,38.800 79.931,38.800 80.177 C 38.800 80.422,38.440 80.883,38.000 81.200 C 37.560 81.517,37.200 81.962,37.199 82.188 C 37.199 82.415,36.659 83.230,36.000 84.000 C 35.341 84.770,34.801 85.585,34.801 85.812 C 34.800 86.038,34.440 86.483,34.000 86.800 C 33.560 87.117,33.200 87.657,33.200 88.000 C 33.200 88.343,32.840 88.883,32.400 89.200 C 31.960 89.517,31.600 90.014,31.600 90.305 C 31.600 90.596,31.240 91.220,30.800 91.692 C 30.360 92.164,30.000 92.787,30.000 93.075 C 30.000 93.364,29.820 93.600,29.600 93.600 C 29.380 93.600,29.200 93.870,29.200 94.200 C 29.200 94.530,28.858 95.142,28.441 95.559 C 28.023 95.977,27.567 96.842,27.426 97.482 C 27.286 98.121,26.817 98.899,26.385 99.211 C 25.953 99.522,25.600 100.097,25.600 100.488 C 25.600 100.880,25.420 101.200,25.200 101.200 C 24.980 101.200,24.800 101.560,24.800 102.000 C 24.800 102.440,24.665 102.801,24.500 102.803 C 24.335 102.805,24.002 103.210,23.760 103.703 C 22.578 106.111,21.370 108.213,21.100 108.333 C 20.935 108.407,20.800 108.812,20.800 109.233 C 20.800 109.655,20.620 110.000,20.400 110.000 C 20.180 110.000,20.000 110.360,20.000 110.800 C 20.000 111.240,19.864 111.600,19.698 111.600 C 19.531 111.600,19.160 112.185,18.871 112.900 C 18.583 113.615,18.179 114.513,17.974 114.895 C 17.768 115.277,17.600 115.862,17.600 116.195 C 17.600 116.528,17.420 116.800,17.200 116.800 C 16.980 116.800,16.800 117.160,16.800 117.600 C 16.800 118.040,16.620 118.400,16.400 118.400 C 16.180 118.400,16.000 118.760,16.000 119.200 C 16.000 119.640,15.850 120.000,15.667 120.000 C 15.483 120.000,15.313 120.225,15.288 120.500 C 15.200 121.475,14.200 124.000,13.902 124.000 C 13.736 124.000,13.600 124.354,13.600 124.786 C 13.600 125.219,13.349 126.164,13.042 126.886 C 12.109 129.083,11.706 130.189,11.754 130.418 C 11.779 130.537,11.492 131.105,11.117 131.678 C 10.741 132.252,10.319 133.594,10.179 134.661 C 10.039 135.727,9.762 136.771,9.562 136.980 C 9.363 137.189,9.200 137.684,9.200 138.080 C 9.200 138.476,9.020 138.800,8.800 138.800 C 8.580 138.800,8.400 139.329,8.400 139.976 C 8.400 140.623,8.220 141.264,8.000 141.400 C 7.780 141.536,7.600 142.166,7.600 142.800 C 7.600 143.434,7.420 144.064,7.200 144.200 C 6.980 144.336,6.800 144.966,6.800 145.600 C 6.800 146.234,6.620 146.864,6.400 147.000 C 6.180 147.136,6.000 147.766,6.000 148.400 C 6.000 149.034,5.820 149.664,5.600 149.800 C 5.380 149.936,5.200 150.656,5.200 151.400 C 5.200 152.144,5.020 152.864,4.800 153.000 C 4.580 153.136,4.400 154.047,4.400 155.024 C 4.400 156.001,4.220 156.800,4.000 156.800 C 3.780 156.800,3.600 157.509,3.600 158.376 C 3.600 159.243,3.420 160.064,3.200 160.200 C 2.980 160.336,2.800 161.437,2.800 162.647 C 2.800 164.012,2.648 164.753,2.400 164.600 C 2.152 164.447,2.000 165.188,2.000 166.553 C 2.000 167.763,1.820 168.864,1.600 169.000 C 1.380 169.136,1.200 170.486,1.200 172.000 C 1.200 173.514,1.045 174.849,0.855 174.966 C 0.009 175.489,-0.134 224.026,0.707 224.867 C 1.000 225.160,1.200 226.452,1.200 228.056 C 1.200 229.539,1.380 230.864,1.600 231.000 C 1.820 231.136,2.000 232.237,2.000 233.447 C 2.000 234.812,2.152 235.553,2.400 235.400 C 2.650 235.246,2.800 236.063,2.800 237.576 C 2.800 238.925,2.977 240.000,3.200 240.000 C 3.420 240.000,3.600 240.720,3.600 241.600 C 3.600 242.480,3.780 243.200,4.000 243.200 C 4.220 243.200,4.400 243.974,4.400 244.920 C 4.400 245.866,4.571 246.811,4.781 247.021 C 4.990 247.230,5.206 248.065,5.261 248.875 C 5.315 249.685,5.504 250.259,5.680 250.151 C 5.856 250.042,6.000 250.583,6.000 251.353 C 6.000 252.123,6.180 252.864,6.400 253.000 C 6.620 253.136,6.800 253.867,6.800 254.624 C 6.800 255.381,6.980 256.000,7.200 256.000 C 7.420 256.000,7.600 256.529,7.600 257.176 C 7.600 257.823,7.780 258.464,8.000 258.600 C 8.220 258.736,8.400 259.377,8.400 260.024 C 8.400 260.671,8.580 261.200,8.800 261.200 C 9.020 261.200,9.200 261.740,9.200 262.400 C 9.200 263.060,9.360 263.600,9.556 263.600 C 9.752 263.600,10.002 264.185,10.112 264.900 C 10.421 266.924,10.688 267.824,11.369 269.141 C 11.716 269.812,12.000 270.607,12.000 270.909 C 12.000 271.211,12.512 272.525,13.137 273.829 C 13.762 275.133,14.518 277.043,14.816 278.074 C 15.115 279.105,15.504 279.860,15.680 279.751 C 15.856 279.642,16.000 280.013,16.000 280.576 C 16.000 281.139,16.180 281.600,16.400 281.600 C 16.620 281.600,16.800 281.960,16.800 282.400 C 16.800 282.840,16.980 283.200,17.200 283.200 C 17.420 283.200,17.600 283.472,17.600 283.805 C 17.600 284.138,17.763 284.723,17.963 285.105 C 18.163 285.487,18.764 286.743,19.300 287.896 C 19.836 289.049,20.392 289.874,20.537 289.730 C 20.682 289.585,20.800 289.947,20.800 290.533 C 20.800 291.120,20.980 291.600,21.200 291.600 C 21.420 291.600,21.600 291.945,21.600 292.367 C 21.600 292.788,21.735 293.193,21.900 293.267 C 22.276 293.434,23.575 295.564,23.871 296.500 C 23.993 296.885,24.252 297.200,24.447 297.200 C 24.641 297.200,24.800 297.560,24.800 298.000 C 24.800 298.440,24.980 298.800,25.200 298.800 C 25.420 298.800,25.600 299.171,25.600 299.624 C 25.600 300.077,25.780 300.336,26.000 300.200 C 26.220 300.064,26.400 300.233,26.400 300.576 C 26.400 300.919,26.560 301.200,26.755 301.200 C 26.951 301.200,27.229 301.830,27.374 302.600 C 27.518 303.370,27.808 304.000,28.018 304.000 C 28.228 304.000,28.400 304.209,28.400 304.464 C 28.400 304.719,29.115 305.875,29.990 307.033 C 30.864 308.191,31.629 309.377,31.690 309.669 C 31.750 309.961,32.115 310.491,32.500 310.847 C 32.885 311.203,33.200 311.706,33.200 311.965 C 33.200 312.224,33.650 312.886,34.200 313.436 C 34.750 313.986,35.200 314.580,35.200 314.756 C 35.200 314.932,35.650 315.599,36.200 316.238 C 36.749 316.877,37.199 317.559,37.200 317.753 C 37.200 317.947,37.532 318.397,37.937 318.753 C 38.343 319.109,38.894 319.814,39.162 320.319 C 39.625 321.193,40.707 322.523,42.698 324.666 C 43.192 325.198,43.853 326.120,44.166 326.716 C 44.479 327.312,45.695 328.829,46.868 330.086 C 48.040 331.343,49.450 332.934,50.000 333.622 C 51.193 335.114,57.060 340.985,58.771 342.400 C 59.436 342.950,60.087 343.715,60.217 344.100 C 60.347 344.485,60.742 344.800,61.094 344.800 C 61.445 344.800,61.626 344.907,61.495 345.039 C 61.183 345.350,64.634 348.800,65.256 348.800 C 65.519 348.800,65.623 348.910,65.489 349.044 C 65.249 349.284,67.273 351.200,67.766 351.200 C 67.904 351.200,69.007 352.190,70.217 353.400 C 71.427 354.610,72.585 355.600,72.791 355.600 C 72.996 355.600,73.622 356.058,74.182 356.618 C 74.742 357.178,75.200 357.538,75.200 357.418 C 75.200 357.298,75.560 357.560,76.000 358.000 C 76.440 358.440,77.100 358.800,77.467 358.800 C 77.833 358.800,78.017 358.917,77.874 359.060 C 77.593 359.340,79.572 361.199,80.153 361.200 C 80.347 361.200,80.797 361.516,81.153 361.903 C 81.509 362.289,82.295 362.860,82.900 363.170 C 83.505 363.481,84.000 363.885,84.000 364.068 C 84.000 364.250,84.270 364.400,84.600 364.400 C 84.930 364.400,85.200 364.580,85.200 364.800 C 85.200 365.020,85.430 365.200,85.712 365.200 C 85.993 365.200,86.483 365.560,86.800 366.000 C 87.117 366.440,87.697 366.800,88.088 366.800 C 88.480 366.800,88.800 366.980,88.800 367.200 C 88.800 367.420,89.081 367.600,89.424 367.600 C 89.767 367.600,89.936 367.780,89.800 368.000 C 89.664 368.220,89.896 368.400,90.314 368.400 C 90.733 368.400,91.402 368.760,91.800 369.200 C 92.198 369.640,92.687 370.000,92.885 370.000 C 93.084 370.000,93.911 370.517,94.723 371.149 C 95.536 371.781,96.785 372.545,97.500 372.847 C 98.215 373.149,98.800 373.542,98.800 373.721 C 98.800 373.901,98.980 373.936,99.200 373.800 C 99.420 373.664,99.600 373.754,99.600 374.000 C 99.600 374.246,99.780 374.336,100.000 374.200 C 100.220 374.064,100.400 374.124,100.400 374.333 C 100.400 374.542,100.893 374.837,101.496 374.988 C 102.099 375.140,102.684 375.384,102.796 375.532 C 103.096 375.926,105.290 377.215,106.100 377.471 C 106.485 377.593,106.800 377.852,106.800 378.047 C 106.800 378.241,107.160 378.400,107.600 378.400 C 108.040 378.400,108.400 378.580,108.400 378.800 C 108.400 379.020,108.634 379.200,108.920 379.200 C 109.656 379.200,111.593 380.141,111.597 380.500 C 111.599 380.665,111.789 380.800,112.019 380.800 C 112.250 380.800,113.184 381.160,114.094 381.600 C 115.005 382.040,115.986 382.400,116.275 382.400 C 116.564 382.400,116.800 382.580,116.800 382.800 C 116.800 383.020,117.160 383.200,117.600 383.200 C 118.040 383.200,118.400 383.380,118.400 383.600 C 118.400 383.820,118.760 384.000,119.200 384.000 C 119.640 384.000,120.000 384.191,120.000 384.424 C 120.000 384.657,120.153 384.752,120.341 384.636 C 120.529 384.520,121.024 384.684,121.441 385.000 C 121.858 385.316,122.605 385.580,123.100 385.587 C 123.595 385.594,124.000 385.780,124.000 386.000 C 124.000 386.220,124.248 386.400,124.551 386.400 C 124.854 386.400,125.799 386.702,126.651 387.070 C 127.503 387.439,128.560 387.804,129.000 387.882 C 129.440 387.960,129.860 388.198,129.933 388.412 C 130.007 388.625,130.466 388.800,130.953 388.800 C 131.441 388.800,132.011 388.952,132.220 389.137 C 132.429 389.323,133.680 389.811,135.000 390.222 C 137.948 391.141,137.481 391.020,139.509 391.392 C 140.449 391.564,141.314 391.861,141.432 392.053 C 141.551 392.244,142.166 392.400,142.800 392.400 C 143.434 392.400,144.064 392.580,144.200 392.800 C 144.336 393.020,144.966 393.200,145.600 393.200 C 146.234 393.200,146.864 393.380,147.000 393.600 C 147.136 393.820,147.777 394.000,148.424 394.000 C 149.071 394.000,149.600 394.180,149.600 394.400 C 149.600 394.620,150.309 394.800,151.176 394.800 C 152.043 394.800,152.864 394.980,153.000 395.200 C 153.136 395.420,154.047 395.600,155.024 395.600 C 156.001 395.600,156.800 395.780,156.800 396.000 C 156.800 396.220,157.520 396.400,158.400 396.400 C 159.280 396.400,160.000 396.580,160.000 396.800 C 160.000 397.020,160.990 397.200,162.200 397.200 C 163.410 397.200,164.400 397.348,164.400 397.529 C 164.400 397.709,165.345 397.899,166.500 397.951 C 167.655 398.003,168.771 398.215,168.980 398.423 C 169.189 398.630,170.548 398.800,172.000 398.800 C 173.579 398.800,174.841 399.001,175.140 399.300 C 175.836 399.996,224.685 400.034,225.115 399.338 C 225.272 399.085,226.570 398.773,228.000 398.645 C 234.424 398.074,235.600 397.906,235.600 397.564 C 235.600 397.364,236.590 397.200,237.800 397.200 C 239.010 397.200,240.000 397.020,240.000 396.800 C 240.000 396.580,240.720 396.400,241.600 396.400 C 242.480 396.400,243.200 396.220,243.200 396.000 C 243.200 395.780,243.999 395.600,244.976 395.600 C 245.953 395.600,246.864 395.420,247.000 395.200 C 247.136 394.980,247.957 394.800,248.824 394.800 C 249.691 394.800,250.400 394.620,250.400 394.400 C 250.400 394.180,250.929 394.000,251.576 394.000 C 252.223 394.000,252.864 393.820,253.000 393.600 C 253.136 393.380,253.877 393.200,254.647 393.200 C 255.479 393.200,255.947 393.038,255.800 392.800 C 255.651 392.558,256.196 392.400,257.176 392.400 C 258.069 392.400,258.800 392.220,258.800 392.000 C 258.800 391.780,259.229 391.600,259.754 391.600 C 260.740 391.600,264.846 390.409,265.200 390.020 C 265.310 389.899,265.850 389.736,266.400 389.659 C 266.950 389.581,267.490 389.401,267.600 389.259 C 267.710 389.116,268.250 388.936,268.800 388.859 C 269.350 388.781,269.898 388.561,270.017 388.369 C 270.137 388.177,270.587 387.953,271.017 387.870 C 272.099 387.663,273.138 387.264,274.938 386.367 C 275.784 385.945,276.808 385.600,277.214 385.600 C 277.620 385.600,278.064 385.420,278.200 385.200 C 278.336 384.980,278.797 384.800,279.224 384.800 C 279.651 384.800,280.000 384.620,280.000 384.400 C 280.000 384.180,280.360 384.000,280.800 384.000 C 281.240 384.000,281.600 383.820,281.600 383.600 C 281.600 383.380,281.960 383.200,282.400 383.200 C 282.840 383.200,283.200 383.020,283.200 382.800 C 283.200 382.580,283.472 382.400,283.805 382.400 C 284.138 382.400,284.723 382.237,285.105 382.037 C 285.487 381.837,286.743 381.236,287.896 380.700 C 289.049 380.164,289.874 379.608,289.730 379.463 C 289.585 379.318,289.947 379.200,290.533 379.200 C 291.120 379.200,291.600 379.020,291.600 378.800 C 291.600 378.580,291.960 378.400,292.400 378.400 C 292.840 378.400,293.200 378.241,293.200 378.047 C 293.200 377.852,293.515 377.593,293.900 377.471 C 294.639 377.237,296.861 375.959,297.200 375.572 C 297.310 375.447,298.209 375.026,299.199 374.636 C 300.188 374.246,301.088 373.806,301.199 373.658 C 301.309 373.510,302.223 372.975,303.229 372.468 C 304.235 371.961,305.562 371.114,306.178 370.585 C 306.794 370.056,307.636 369.516,308.049 369.384 C 308.462 369.253,308.800 369.000,308.800 368.822 C 308.800 368.643,309.340 368.273,310.000 368.000 C 310.660 367.727,311.200 367.345,311.200 367.151 C 311.200 366.958,311.520 366.800,311.912 366.800 C 312.303 366.800,312.883 366.440,313.200 366.000 C 313.517 365.560,313.962 365.200,314.188 365.199 C 314.415 365.199,315.230 364.659,316.000 364.000 C 316.770 363.341,317.585 362.801,317.812 362.801 C 318.038 362.800,318.483 362.440,318.800 362.000 C 319.117 361.560,319.607 361.200,319.888 361.200 C 320.170 361.200,320.400 361.020,320.400 360.800 C 320.400 360.580,320.599 360.400,320.842 360.400 C 321.086 360.400,321.639 359.950,322.071 359.400 C 322.504 358.850,323.077 358.400,323.346 358.400 C 323.614 358.400,324.501 357.770,325.318 357.000 C 326.134 356.230,326.978 355.600,327.192 355.600 C 327.407 355.600,328.573 354.610,329.783 353.400 C 330.993 352.190,332.106 351.200,332.258 351.200 C 332.599 351.200,332.888 350.931,337.704 346.109 C 342.401 341.406,341.406 342.401,346.109 337.704 C 350.931 332.888,351.200 332.599,351.200 332.258 C 351.200 332.106,352.190 330.993,353.400 329.783 C 354.610 328.573,355.600 327.407,355.600 327.192 C 355.600 326.978,356.230 326.134,357.000 325.318 C 357.770 324.501,358.400 323.614,358.400 323.346 C 358.400 323.077,358.850 322.504,359.400 322.071 C 359.950 321.639,360.400 321.086,360.400 320.842 C 360.400 320.599,360.580 320.400,360.800 320.400 C 361.020 320.400,361.200 320.170,361.200 319.888 C 361.200 319.607,361.560 319.117,362.000 318.800 C 362.440 318.483,362.800 318.038,362.801 317.812 C 362.801 317.585,363.341 316.770,364.000 316.000 C 364.659 315.230,365.199 314.415,365.199 314.188 C 365.200 313.962,365.560 313.517,366.000 313.200 C 366.440 312.883,366.800 312.303,366.800 311.912 C 366.800 311.520,366.958 311.200,367.151 311.200 C 367.345 311.200,367.727 310.660,368.000 310.000 C 368.273 309.340,368.643 308.800,368.822 308.800 C 369.000 308.800,369.253 308.462,369.384 308.049 C 369.516 307.636,370.056 306.794,370.585 306.178 C 371.114 305.562,371.961 304.235,372.468 303.229 C 372.975 302.223,373.496 301.310,373.626 301.200 C 374.027 300.861,375.200 298.307,375.200 297.772 C 375.200 297.494,375.335 297.207,375.500 297.133 C 375.876 296.966,377.175 294.836,377.471 293.900 C 377.593 293.515,377.852 293.200,378.047 293.200 C 378.241 293.200,378.400 292.840,378.400 292.400 C 378.400 291.960,378.580 291.600,378.800 291.600 C 379.020 291.600,379.200 291.120,379.200 290.533 C 379.200 289.947,379.318 289.585,379.463 289.730 C 379.608 289.874,380.164 289.049,380.700 287.896 C 381.236 286.743,381.837 285.487,382.037 285.105 C 382.237 284.723,382.400 284.138,382.400 283.805 C 382.400 283.472,382.580 283.200,382.800 283.200 C 383.020 283.200,383.200 282.840,383.200 282.400 C 383.200 281.960,383.380 281.600,383.600 281.600 C 383.820 281.600,384.000 281.240,384.000 280.800 C 384.000 280.360,384.180 280.000,384.400 280.000 C 384.620 280.000,384.800 279.651,384.800 279.224 C 384.800 278.797,384.980 278.336,385.200 278.200 C 385.420 278.064,385.600 277.620,385.600 277.214 C 385.600 276.808,385.945 275.784,386.367 274.938 C 387.264 273.138,387.663 272.099,387.870 271.017 C 387.953 270.587,388.177 270.137,388.369 270.017 C 388.561 269.898,388.781 269.350,388.859 268.800 C 388.936 268.250,389.116 267.710,389.259 267.600 C 389.401 267.490,389.581 266.950,389.659 266.400 C 389.736 265.850,389.899 265.310,390.020 265.200 C 390.409 264.846,391.600 260.740,391.600 259.754 C 391.600 259.229,391.780 258.800,392.000 258.800 C 392.220 258.800,392.400 258.069,392.400 257.176 C 392.400 256.196,392.558 255.651,392.800 255.800 C 393.038 255.947,393.200 255.479,393.200 254.647 C 393.200 253.877,393.380 253.136,393.600 253.000 C 393.820 252.864,394.000 252.223,394.000 251.576 C 394.000 250.929,394.180 250.400,394.400 250.400 C 394.620 250.400,394.800 249.691,394.800 248.824 C 394.800 247.957,394.980 247.136,395.200 247.000 C 395.420 246.864,395.600 245.953,395.600 244.976 C 395.600 243.999,395.780 243.200,396.000 243.200 C 396.220 243.200,396.400 242.480,396.400 241.600 C 396.400 240.720,396.580 240.000,396.800 240.000 C 397.020 240.000,397.200 239.010,397.200 237.800 C 397.200 236.590,397.364 235.600,397.564 235.600 C 397.908 235.600,398.099 234.272,398.617 228.300 C 398.736 226.925,399.051 225.368,399.317 224.839 C 400.028 223.425,400.012 175.852,399.300 175.140 C 399.001 174.841,398.800 173.579,398.800 172.000 C 398.800 170.548,398.630 169.189,398.423 168.980 C 398.215 168.771,398.003 167.655,397.951 166.500 C 397.899 165.345,397.709 164.400,397.529 164.400 C 397.348 164.400,397.200 163.410,397.200 162.200 C 397.200 160.990,397.020 160.000,396.800 160.000 C 396.580 160.000,396.400 159.280,396.400 158.400 C 396.400 157.520,396.220 156.800,396.000 156.800 C 395.780 156.800,395.600 156.001,395.600 155.024 C 395.600 154.047,395.420 153.136,395.200 153.000 C 394.980 152.864,394.800 152.043,394.800 151.176 C 394.800 150.309,394.620 149.600,394.400 149.600 C 394.180 149.600,394.000 149.071,394.000 148.424 C 394.000 147.777,393.820 147.136,393.600 147.000 C 393.380 146.864,393.200 146.234,393.200 145.600 C 393.200 144.966,393.020 144.336,392.800 144.200 C 392.580 144.064,392.400 143.434,392.400 142.800 C 392.400 142.166,392.244 141.551,392.053 141.432 C 391.861 141.314,391.564 140.449,391.392 139.509 C 391.020 137.481,391.141 137.948,390.222 135.000 C 389.811 133.680,389.323 132.429,389.137 132.220 C 388.952 132.011,388.800 131.441,388.800 130.953 C 388.800 130.466,388.625 130.007,388.412 129.933 C 388.198 129.860,387.960 129.440,387.882 129.000 C 387.804 128.560,387.439 127.503,387.070 126.651 C 386.702 125.799,386.400 124.854,386.400 124.551 C 386.400 124.248,386.220 124.000,386.000 124.000 C 385.780 124.000,385.594 123.595,385.587 123.100 C 385.580 122.605,385.316 121.858,385.000 121.441 C 384.684 121.024,384.520 120.529,384.636 120.341 C 384.752 120.153,384.657 120.000,384.424 120.000 C 384.191 120.000,384.000 119.640,384.000 119.200 C 384.000 118.760,383.820 118.400,383.600 118.400 C 383.380 118.400,383.200 118.040,383.200 117.600 C 383.200 117.160,383.020 116.800,382.800 116.800 C 382.580 116.800,382.400 116.564,382.400 116.275 C 382.400 115.986,382.040 115.005,381.600 114.094 C 381.160 113.184,380.800 112.250,380.800 112.019 C 380.800 111.789,380.665 111.599,380.500 111.597 C 380.141 111.593,379.200 109.656,379.200 108.920 C 379.200 108.634,379.020 108.400,378.800 108.400 C 378.580 108.400,378.400 108.040,378.400 107.600 C 378.400 107.160,378.241 106.800,378.047 106.800 C 377.852 106.800,377.593 106.485,377.471 106.100 C 377.231 105.341,375.948 103.124,375.562 102.800 C 375.430 102.690,375.202 102.105,375.054 101.500 C 374.906 100.895,374.598 100.400,374.369 100.400 C 374.140 100.400,374.064 100.220,374.200 100.000 C 374.336 99.780,374.246 99.600,374.000 99.600 C 373.754 99.600,373.664 99.420,373.800 99.200 C 373.936 98.980,373.901 98.800,373.721 98.800 C 373.542 98.800,373.149 98.215,372.847 97.500 C 372.545 96.785,371.781 95.536,371.149 94.723 C 370.517 93.911,370.000 93.084,370.000 92.885 C 370.000 92.687,369.640 92.198,369.200 91.800 C 368.760 91.402,368.400 90.733,368.400 90.314 C 368.400 89.896,368.220 89.664,368.000 89.800 C 367.780 89.936,367.600 89.767,367.600 89.424 C 367.600 89.081,367.420 88.800,367.200 88.800 C 366.980 88.800,366.800 88.480,366.800 88.088 C 366.800 87.697,366.440 87.117,366.000 86.800 C 365.560 86.483,365.200 85.993,365.200 85.712 C 365.200 85.430,365.020 85.200,364.800 85.200 C 364.580 85.200,364.400 84.930,364.400 84.600 C 364.400 84.270,364.250 84.000,364.068 84.000 C 363.885 84.000,363.481 83.505,363.170 82.900 C 362.860 82.295,362.289 81.509,361.903 81.153 C 361.516 80.797,361.200 80.347,361.200 80.153 C 361.199 79.572,359.340 77.593,359.060 77.874 C 358.917 78.017,358.800 77.833,358.800 77.467 C 358.800 77.100,358.440 76.440,358.000 76.000 C 357.560 75.560,357.298 75.200,357.418 75.200 C 357.538 75.200,357.178 74.742,356.618 74.182 C 356.058 73.622,355.600 72.996,355.600 72.791 C 355.600 72.585,354.610 71.427,353.400 70.217 C 352.190 69.007,351.200 67.904,351.200 67.766 C 351.200 67.273,349.284 65.249,349.044 65.489 C 348.910 65.623,348.800 65.519,348.800 65.256 C 348.800 64.634,345.350 61.183,345.039 61.495 C 344.907 61.626,344.800 61.445,344.800 61.094 C 344.800 60.742,344.485 60.347,344.100 60.217 C 343.715 60.087,342.950 59.436,342.400 58.771 C 340.985 57.060,335.114 51.193,333.622 50.000 C 332.934 49.450,331.343 48.040,330.086 46.868 C 328.829 45.695,327.312 44.479,326.716 44.166 C 326.120 43.853,325.198 43.192,324.666 42.698 C 322.523 40.707,321.193 39.625,320.319 39.162 C 319.814 38.894,319.109 38.343,318.753 37.937 C 318.397 37.532,317.947 37.200,317.753 37.200 C 317.559 37.199,316.877 36.749,316.238 36.200 C 315.599 35.650,314.932 35.200,314.756 35.200 C 314.580 35.200,313.986 34.750,313.436 34.200 C 312.886 33.650,312.224 33.200,311.965 33.200 C 311.706 33.200,311.203 32.885,310.847 32.500 C 310.491 32.115,309.961 31.750,309.669 31.690 C 309.377 31.629,308.191 30.864,307.033 29.990 C 305.875 29.115,304.719 28.400,304.464 28.400 C 304.209 28.400,304.000 28.228,304.000 28.018 C 304.000 27.808,303.370 27.518,302.600 27.374 C 301.830 27.229,301.200 26.951,301.200 26.755 C 301.200 26.560,300.919 26.400,300.576 26.400 C 300.233 26.400,300.064 26.220,300.200 26.000 C 300.336 25.780,300.164 25.600,299.818 25.600 C 299.244 25.600,297.686 24.886,297.200 24.400 C 296.804 24.004,294.585 22.746,293.900 22.529 C 293.515 22.407,293.200 22.148,293.200 21.953 C 293.200 21.759,292.840 21.600,292.400 21.600 C 291.960 21.600,291.600 21.420,291.600 21.200 C 291.600 20.980,291.120 20.800,290.533 20.800 C 289.947 20.800,289.585 20.682,289.730 20.537 C 289.874 20.392,289.049 19.836,287.896 19.300 C 286.743 18.764,285.487 18.163,285.105 17.963 C 284.723 17.763,284.138 17.600,283.805 17.600 C 283.472 17.600,283.200 17.420,283.200 17.200 C 283.200 16.980,282.840 16.800,282.400 16.800 C 281.960 16.800,281.600 16.620,281.600 16.400 C 281.600 16.180,281.139 16.000,280.576 16.000 C 280.013 16.000,279.642 15.856,279.751 15.680 C 279.860 15.504,279.105 15.115,278.074 14.816 C 277.043 14.518,275.133 13.762,273.829 13.137 C 272.525 12.512,271.211 12.000,270.909 12.000 C 270.607 12.000,269.812 11.716,269.141 11.369 C 267.824 10.688,266.924 10.421,264.900 10.112 C 264.185 10.002,263.600 9.752,263.600 9.556 C 263.600 9.360,263.060 9.200,262.400 9.200 C 261.740 9.200,261.200 9.020,261.200 8.800 C 261.200 8.580,260.671 8.400,260.024 8.400 C 259.377 8.400,258.736 8.220,258.600 8.000 C 258.464 7.780,257.823 7.600,257.176 7.600 C 256.529 7.600,256.000 7.420,256.000 7.200 C 256.000 6.980,255.381 6.800,254.624 6.800 C 253.867 6.800,253.136 6.620,253.000 6.400 C 252.864 6.180,252.123 6.000,251.353 6.000 C 250.583 6.000,250.042 5.856,250.151 5.680 C 250.259 5.504,249.685 5.315,248.875 5.261 C 248.065 5.206,247.230 4.990,247.021 4.781 C 246.811 4.571,245.866 4.400,244.920 4.400 C 243.974 4.400,243.200 4.220,243.200 4.000 C 243.200 3.780,242.480 3.600,241.600 3.600 C 240.720 3.600,240.000 3.420,240.000 3.200 C 240.000 2.977,238.925 2.800,237.576 2.800 C 236.063 2.800,235.246 2.650,235.400 2.400 C 235.553 2.152,234.812 2.000,233.447 2.000 C 232.237 2.000,231.136 1.820,231.000 1.600 C 230.864 1.380,229.539 1.200,228.056 1.200 C 226.478 1.200,225.159 0.999,224.875 0.715 C 224.377 0.217,182.852 -0.351,182.389 0.134 M206.482 113.212 C 212.926 113.659,216.648 114.157,219.700 114.980 C 220.965 115.321,223.035 115.871,224.300 116.203 C 228.111 117.201,234.756 119.837,239.000 122.034 C 241.200 123.172,243.404 124.306,243.897 124.552 C 244.390 124.798,244.795 125.135,244.797 125.300 C 244.799 125.465,244.988 125.600,245.218 125.600 C 246.748 125.600,256.264 133.004,261.630 138.370 C 267.063 143.803,275.200 154.343,275.200 155.947 C 275.200 156.160,275.338 156.393,275.506 156.467 C 275.926 156.650,280.530 166.093,281.519 168.800 C 281.961 170.010,282.588 171.720,282.913 172.600 C 289.644 190.821,288.188 218.280,279.563 235.756 C 278.923 237.052,278.400 238.357,278.400 238.656 C 278.400 238.955,278.220 239.200,278.000 239.200 C 277.780 239.200,277.596 239.515,277.591 239.900 C 277.586 240.285,277.230 241.050,276.800 241.600 C 276.370 242.150,276.014 242.825,276.009 243.100 C 276.004 243.375,275.820 243.600,275.600 243.600 C 275.380 243.600,275.200 243.793,275.200 244.028 C 275.200 244.263,274.660 245.241,274.000 246.200 C 273.340 247.159,272.800 248.046,272.800 248.170 C 272.800 248.600,267.174 255.804,264.498 258.802 C 260.654 263.106,249.347 272.800,248.170 272.800 C 248.046 272.800,247.159 273.340,246.200 274.000 C 245.241 274.660,244.263 275.200,244.028 275.200 C 243.793 275.200,243.600 275.380,243.600 275.600 C 243.600 275.820,243.375 276.004,243.100 276.009 C 242.825 276.014,242.150 276.370,241.600 276.800 C 241.050 277.230,240.285 277.586,239.900 277.591 C 239.515 277.596,239.200 277.780,239.200 278.000 C 239.200 278.220,238.955 278.400,238.656 278.400 C 238.357 278.400,237.052 278.923,235.756 279.563 C 218.280 288.188,190.821 289.644,172.600 282.913 C 171.720 282.588,170.010 281.961,168.800 281.519 C 166.093 280.530,156.650 275.926,156.467 275.506 C 156.393 275.338,156.160 275.200,155.947 275.200 C 154.343 275.200,143.803 267.063,138.370 261.630 C 133.004 256.264,125.600 246.748,125.600 245.218 C 125.600 244.988,125.465 244.799,125.300 244.797 C 125.135 244.795,124.798 244.390,124.552 243.897 C 124.306 243.404,123.172 241.200,122.034 239.000 C 119.837 234.756,117.201 228.111,116.203 224.300 C 115.871 223.035,115.321 220.965,114.980 219.700 C 112.722 211.325,112.290 196.849,113.962 185.600 C 114.350 182.986,114.492 182.345,115.925 176.754 C 117.498 170.616,121.723 160.622,124.476 156.528 C 125.094 155.608,125.600 154.743,125.600 154.606 C 125.600 154.251,128.523 149.993,131.359 146.217 C 134.462 142.086,142.086 134.462,146.217 131.359 C 150.590 128.074,154.268 125.600,154.778 125.600 C 155.010 125.600,155.201 125.465,155.203 125.300 C 155.205 125.135,155.610 124.798,156.103 124.552 C 156.596 124.306,158.759 123.193,160.910 122.080 C 167.715 118.556,175.459 115.913,183.000 114.541 C 184.760 114.220,186.968 113.788,187.906 113.579 C 188.844 113.371,191.004 113.184,192.706 113.165 C 194.408 113.146,196.700 112.992,197.800 112.823 C 198.900 112.655,200.107 112.590,200.482 112.679 C 200.857 112.769,203.557 113.009,206.482 113.212 " stroke="none" fill="#f3f3f3" fill-rule="evenodd"></path><path id="path2" d="M198.000 112.831 C 196.643 113.018,197.127 113.095,199.967 113.140 C 202.038 113.173,203.658 113.134,203.567 113.053 C 203.205 112.735,199.702 112.595,198.000 112.831 M188.200 113.600 L 187.400 113.944 188.200 113.932 C 188.640 113.926,189.450 113.776,190.000 113.600 L 191.000 113.280 190.000 113.268 C 189.450 113.262,188.640 113.411,188.200 113.600 M210.000 113.600 C 210.550 113.776,211.360 113.926,211.800 113.932 L 212.600 113.944 211.800 113.600 C 211.360 113.411,210.550 113.262,210.000 113.268 L 209.000 113.280 210.000 113.600 M183.000 114.400 C 181.930 114.672,181.908 114.705,182.800 114.705 C 183.350 114.705,184.340 114.568,185.000 114.400 C 186.070 114.128,186.092 114.095,185.200 114.095 C 184.650 114.095,183.660 114.232,183.000 114.400 M215.200 114.400 C 215.750 114.576,216.650 114.720,217.200 114.720 L 218.200 114.720 217.200 114.400 C 216.650 114.224,215.750 114.080,215.200 114.080 L 214.200 114.080 215.200 114.400 M179.600 115.200 C 179.067 115.545,179.067 115.588,179.600 115.588 C 179.930 115.588,180.470 115.413,180.800 115.200 C 181.333 114.855,181.333 114.812,180.800 114.812 C 180.470 114.812,179.930 114.987,179.600 115.200 M219.200 115.200 C 219.530 115.413,220.160 115.578,220.600 115.566 L 221.400 115.544 220.600 115.200 C 219.404 114.686,218.405 114.686,219.200 115.200 M172.400 117.200 C 170.015 118.201,170.845 118.216,173.400 117.218 C 174.500 116.789,175.130 116.439,174.800 116.441 C 174.470 116.443,173.390 116.785,172.400 117.200 M225.400 116.800 C 225.840 116.989,226.470 117.144,226.800 117.144 C 227.178 117.144,227.104 117.017,226.600 116.800 C 226.160 116.611,225.530 116.456,225.200 116.456 C 224.822 116.456,224.896 116.583,225.400 116.800 M230.000 118.333 C 230.330 118.536,231.050 118.824,231.600 118.971 C 232.295 119.157,232.417 119.125,232.000 118.867 C 231.670 118.664,230.950 118.376,230.400 118.229 C 229.705 118.043,229.583 118.075,230.000 118.333 M153.200 126.436 C 152.536 126.979,152.469 127.115,153.000 126.840 C 154.305 126.166,155.028 125.612,154.600 125.615 C 154.380 125.617,153.750 125.986,153.200 126.436 M149.185 129.229 L 147.800 130.458 149.300 129.381 C 150.626 128.430,151.057 128.000,150.685 128.000 C 150.622 128.000,149.947 128.553,149.185 129.229 M249.305 128.247 C 249.431 128.451,250.391 129.232,251.437 129.984 C 252.484 130.735,253.209 131.139,253.050 130.880 C 252.890 130.622,251.931 129.840,250.918 129.143 C 249.905 128.447,249.180 128.043,249.305 128.247 M141.970 134.946 C 138.411 138.143,133.294 143.521,131.827 145.606 C 131.592 145.940,132.380 145.130,133.578 143.806 C 136.654 140.407,140.958 136.142,144.000 133.479 C 145.430 132.228,146.496 131.203,146.370 131.202 C 146.243 131.201,144.263 132.886,141.970 134.946 M255.600 133.108 C 256.810 134.213,257.868 135.054,257.950 134.975 C 258.104 134.829,256.253 133.188,254.425 131.849 C 253.861 131.437,254.390 132.003,255.600 133.108 M261.400 138.400 C 263.150 140.160,264.671 141.600,264.781 141.600 C 264.891 141.600,263.550 140.160,261.800 138.400 C 260.050 136.640,258.529 135.200,258.419 135.200 C 258.309 135.200,259.650 136.640,261.400 138.400 M266.653 144.200 C 268.550 146.397,269.508 147.225,268.129 145.475 C 266.475 143.376,265.237 142.000,265.003 142.000 C 264.866 142.000,265.609 142.990,266.653 144.200 M269.540 147.916 C 270.033 148.609,270.644 149.304,270.897 149.460 C 271.150 149.617,270.954 149.177,270.460 148.484 C 269.967 147.791,269.356 147.096,269.103 146.940 C 268.850 146.783,269.046 147.223,269.540 147.916 M129.544 148.700 C 128.393 150.089,127.906 150.800,128.104 150.800 C 128.214 150.800,128.786 150.170,129.373 149.400 C 130.463 147.971,130.595 147.432,129.544 148.700 M126.214 153.435 C 125.841 154.004,125.605 154.538,125.689 154.622 C 125.773 154.707,126.158 154.241,126.544 153.588 C 127.406 152.128,127.148 152.009,126.214 153.435 M281.216 168.654 C 281.207 168.904,281.463 169.714,281.784 170.454 C 282.106 171.194,282.376 171.596,282.384 171.346 C 282.393 171.096,282.137 170.286,281.816 169.546 C 281.494 168.806,281.224 168.404,281.216 168.654 M117.088 172.670 C 116.145 175.301,116.249 175.884,117.218 173.400 C 117.648 172.300,117.950 171.251,117.890 171.070 C 117.829 170.888,117.468 171.608,117.088 172.670 M283.606 176.033 C 283.609 176.565,283.789 177.270,284.006 177.600 C 284.282 178.022,284.323 177.785,284.142 176.800 C 283.825 175.075,283.598 174.749,283.606 176.033 M284.468 179.000 C 284.462 179.440,284.611 180.160,284.800 180.600 C 285.238 181.619,285.238 180.568,284.800 179.200 C 284.543 178.396,284.477 178.357,284.468 179.000 M115.000 180.000 C 114.850 180.473,114.817 180.950,114.927 181.060 C 115.037 181.170,115.250 180.873,115.400 180.400 C 115.550 179.927,115.583 179.450,115.473 179.340 C 115.363 179.230,115.150 179.527,115.000 180.000 M285.295 182.400 C 285.295 182.950,285.432 183.940,285.600 184.600 C 285.872 185.670,285.905 185.692,285.905 184.800 C 285.905 184.250,285.768 183.260,285.600 182.600 C 285.328 181.530,285.295 181.508,285.295 182.400 M114.218 183.818 C 114.065 184.839,114.022 185.755,114.122 185.855 C 114.222 185.955,114.429 185.202,114.582 184.182 C 114.735 183.161,114.778 182.245,114.678 182.145 C 114.578 182.045,114.371 182.798,114.218 183.818 M286.080 188.000 C 286.080 188.550,286.224 189.450,286.400 190.000 L 286.720 191.000 286.720 190.000 C 286.720 189.450,286.576 188.550,286.400 188.000 L 286.080 187.000 286.080 188.000 M113.378 188.978 C 113.227 189.781,113.194 190.527,113.304 190.637 C 113.414 190.747,113.627 190.181,113.778 189.378 C 113.928 188.575,113.962 187.828,113.852 187.718 C 113.742 187.608,113.528 188.175,113.378 188.978 M286.914 200.000 C 286.914 204.317,286.969 204.859,287.189 202.700 C 287.340 201.215,287.340 198.785,287.189 197.300 C 286.969 195.141,286.914 195.683,286.914 200.000 M112.731 198.281 C 112.649 199.316,112.696 200.981,112.837 201.981 C 113.035 203.389,113.105 202.963,113.147 200.100 C 113.204 196.156,112.978 195.170,112.731 198.281 M113.268 210.000 C 113.262 210.550,113.411 211.360,113.600 211.800 L 113.944 212.600 113.932 211.800 C 113.926 211.360,113.776 210.550,113.600 210.000 L 113.280 209.000 113.268 210.000 M286.240 210.840 C 286.093 211.757,286.052 212.585,286.147 212.680 C 286.242 212.776,286.446 212.110,286.600 211.200 C 286.754 210.290,286.796 209.462,286.693 209.360 C 286.590 209.257,286.387 209.923,286.240 210.840 M114.080 215.200 C 114.080 215.750,114.224 216.650,114.400 217.200 L 114.720 218.200 114.720 217.200 C 114.720 216.650,114.576 215.750,114.400 215.200 L 114.080 214.200 114.080 215.200 M285.418 216.218 C 285.265 217.239,285.222 218.155,285.322 218.255 C 285.422 218.355,285.629 217.602,285.782 216.582 C 285.935 215.561,285.978 214.645,285.878 214.545 C 285.778 214.445,285.571 215.198,285.418 216.218 M114.834 219.200 C 114.846 219.530,115.011 220.160,115.200 220.600 L 115.544 221.400 115.566 220.600 C 115.578 220.160,115.413 219.530,115.200 219.200 C 114.855 218.667,114.815 218.667,114.834 219.200 M284.600 220.000 C 284.448 220.691,284.407 221.341,284.509 221.442 C 284.611 221.544,284.809 221.053,284.950 220.350 C 285.091 219.647,285.131 218.998,285.041 218.908 C 284.950 218.817,284.752 219.309,284.600 220.000 M283.800 223.200 C 283.648 223.891,283.607 224.541,283.709 224.642 C 283.811 224.744,284.009 224.253,284.150 223.550 C 284.291 222.847,284.331 222.198,284.241 222.108 C 284.150 222.017,283.952 222.509,283.800 223.200 M116.456 225.200 C 116.456 225.530,116.611 226.160,116.800 226.600 C 117.017 227.104,117.144 227.178,117.144 226.800 C 117.144 226.470,116.989 225.840,116.800 225.400 C 116.583 224.896,116.456 224.822,116.456 225.200 M282.426 227.700 C 281.150 231.294,281.008 232.149,282.111 229.600 C 283.072 227.380,283.742 225.200,283.465 225.200 C 283.382 225.200,282.915 226.325,282.426 227.700 M118.229 230.400 C 118.376 230.950,118.664 231.670,118.867 232.000 C 119.125 232.417,119.157 232.295,118.971 231.600 C 118.824 231.050,118.536 230.330,118.333 230.000 C 118.075 229.583,118.043 229.705,118.229 230.400 M271.806 249.088 L 271.104 250.200 272.030 249.311 C 272.539 248.822,272.855 248.322,272.732 248.199 C 272.609 248.076,272.192 248.476,271.806 249.088 M129.143 250.918 C 129.840 251.931,130.622 252.890,130.880 253.050 C 131.139 253.209,130.735 252.484,129.984 251.437 C 128.205 248.960,127.494 248.521,129.143 250.918 M269.544 252.300 C 268.393 253.689,267.906 254.400,268.104 254.400 C 268.214 254.400,268.786 253.770,269.373 253.000 C 270.463 251.571,270.595 251.032,269.544 252.300 M131.849 254.425 C 133.188 256.253,134.829 258.104,134.975 257.950 C 135.054 257.868,134.213 256.810,133.108 255.600 C 132.003 254.390,131.437 253.861,131.849 254.425 M267.142 255.154 C 266.851 255.981,261.020 262.115,257.962 264.809 C 256.220 266.344,254.911 267.600,255.053 267.600 C 256.154 267.600,268.049 255.516,267.495 254.962 C 267.379 254.845,267.220 254.932,267.142 255.154 M138.200 261.600 C 139.950 263.360,141.471 264.800,141.581 264.800 C 141.691 264.800,140.350 263.360,138.600 261.600 C 136.850 259.840,135.329 258.400,135.219 258.400 C 135.109 258.400,136.450 259.840,138.200 261.600 M142.000 265.003 C 142.000 265.237,143.376 266.475,145.475 268.129 C 147.225 269.508,146.397 268.550,144.200 266.653 C 142.990 265.609,142.000 264.866,142.000 265.003 M252.785 269.229 L 251.400 270.458 252.900 269.381 C 254.226 268.430,254.657 268.000,254.285 268.000 C 254.222 268.000,253.547 268.553,252.785 269.229 M146.940 269.103 C 147.096 269.356,147.791 269.967,148.484 270.460 C 149.177 270.954,149.617 271.150,149.460 270.897 C 149.304 270.644,148.609 270.033,147.916 269.540 C 147.223 269.046,146.783 268.850,146.940 269.103 M248.800 272.000 C 248.250 272.430,247.997 272.786,248.238 272.791 C 248.479 272.796,249.002 272.440,249.400 272.000 C 250.312 270.992,250.088 270.992,248.800 272.000 M169.546 281.816 C 170.286 282.137,171.096 282.393,171.346 282.384 C 171.596 282.376,171.194 282.106,170.454 281.784 C 169.714 281.463,168.904 281.207,168.654 281.216 C 168.404 281.224,168.806 281.494,169.546 281.816 M228.600 282.070 C 225.176 283.449,224.877 283.605,226.200 283.321 C 227.742 282.990,231.992 281.229,231.200 281.249 C 230.870 281.258,229.700 281.627,228.600 282.070 M175.233 283.743 C 175.325 283.821,176.030 284.001,176.800 284.142 C 177.785 284.323,178.022 284.282,177.600 284.006 C 177.058 283.650,174.837 283.403,175.233 283.743 M222.600 284.000 C 221.581 284.438,222.632 284.438,224.000 284.000 C 224.804 283.743,224.843 283.677,224.200 283.668 C 223.760 283.662,223.040 283.811,222.600 284.000 M179.200 284.800 C 180.568 285.238,181.619 285.238,180.600 284.800 C 180.160 284.611,179.440 284.462,179.000 284.468 C 178.357 284.477,178.396 284.543,179.200 284.800 M219.400 284.800 C 218.381 285.238,219.432 285.238,220.800 284.800 C 221.604 284.543,221.643 284.477,221.000 284.468 C 220.560 284.462,219.840 284.611,219.400 284.800 M182.600 285.600 C 183.260 285.768,184.250 285.905,184.800 285.905 C 185.692 285.905,185.670 285.872,184.600 285.600 C 183.940 285.432,182.950 285.295,182.400 285.295 C 181.508 285.295,181.530 285.328,182.600 285.600 M215.400 285.600 C 214.330 285.872,214.308 285.905,215.200 285.905 C 215.750 285.905,216.740 285.768,217.400 285.600 C 218.470 285.328,218.492 285.295,217.600 285.295 C 217.050 285.295,216.060 285.432,215.400 285.600 M188.000 286.400 C 188.550 286.576,189.450 286.720,190.000 286.720 L 191.000 286.720 190.000 286.400 C 189.450 286.224,188.550 286.080,188.000 286.080 L 187.000 286.080 188.000 286.400 M210.200 286.400 C 209.122 286.674,209.102 286.706,210.000 286.713 C 210.550 286.717,211.450 286.576,212.000 286.400 C 213.344 285.969,211.892 285.969,210.200 286.400 M197.300 287.189 C 198.785 287.340,201.215 287.340,202.700 287.189 C 204.859 286.969,204.317 286.914,200.000 286.914 C 195.683 286.914,195.141 286.969,197.300 287.189 " stroke="none" fill="#e896a4" fill-rule="evenodd"></path><path id="path3" d="M196.100 113.498 C 198.245 113.570,201.755 113.570,203.900 113.498 C 206.045 113.426,204.290 113.367,200.000 113.367 C 195.710 113.367,193.955 113.426,196.100 113.498 M188.000 114.000 L 186.200 114.280 187.800 114.293 C 188.680 114.300,189.940 114.168,190.600 114.000 C 192.200 113.593,190.619 113.593,188.000 114.000 M211.505 114.283 C 212.002 114.379,212.722 114.375,213.105 114.275 C 213.487 114.175,213.080 114.096,212.200 114.101 C 211.320 114.105,211.007 114.187,211.505 114.283 M181.000 115.219 C 180.442 115.471,180.685 115.507,181.800 115.338 C 182.680 115.204,183.475 115.028,183.567 114.947 C 183.910 114.644,181.768 114.871,181.000 115.219 M216.433 114.947 C 216.525 115.028,217.320 115.204,218.200 115.338 C 219.315 115.507,219.558 115.471,219.000 115.219 C 218.232 114.871,216.090 114.644,216.433 114.947 M178.000 116.018 C 177.562 116.315,177.724 116.352,178.600 116.156 C 180.071 115.827,180.390 115.598,179.367 115.606 C 178.945 115.609,178.330 115.795,178.000 116.018 M220.033 115.744 C 220.125 115.823,220.740 116.008,221.400 116.156 C 222.276 116.352,222.438 116.315,222.000 116.018 C 221.460 115.653,219.632 115.398,220.033 115.744 M158.665 123.447 C 158.040 123.786,157.615 124.148,157.720 124.253 C 157.824 124.357,158.515 124.074,159.255 123.623 C 160.813 122.673,160.348 122.535,158.665 123.447 M242.800 124.514 C 242.800 124.755,245.906 126.800,246.271 126.800 C 246.430 126.800,246.389 126.649,246.180 126.464 C 245.552 125.908,242.800 124.321,242.800 124.514 M154.600 126.000 C 153.940 126.437,153.580 126.792,153.800 126.788 C 154.201 126.782,156.376 125.223,156.000 125.212 C 155.890 125.208,155.260 125.563,154.600 126.000 M249.344 128.709 C 249.660 129.221,252.000 130.953,252.000 130.675 C 252.000 130.576,251.339 129.991,250.532 129.375 C 249.724 128.759,249.189 128.459,249.344 128.709 M148.785 130.029 L 147.400 131.258 148.900 130.181 C 150.226 129.230,150.657 128.800,150.285 128.800 C 150.222 128.800,149.547 129.353,148.785 130.029 M252.400 130.925 C 252.400 131.024,253.061 131.609,253.868 132.225 C 254.676 132.841,255.211 133.141,255.056 132.891 C 254.740 132.379,252.400 130.647,252.400 130.925 M145.585 132.429 L 144.200 133.658 145.700 132.581 C 147.026 131.630,147.457 131.200,147.085 131.200 C 147.022 131.200,146.347 131.753,145.585 132.429 M255.715 133.450 C 256.061 134.026,263.200 140.551,263.200 140.293 C 263.200 140.186,261.455 138.501,259.322 136.549 C 257.189 134.597,255.566 133.203,255.715 133.450 M141.877 135.453 C 140.819 136.462,140.020 137.354,140.101 137.434 C 140.182 137.515,141.131 136.686,142.209 135.591 C 144.668 133.095,144.446 133.003,141.877 135.453 M135.215 142.141 L 133.429 144.200 135.515 142.215 C 136.662 141.123,137.600 140.178,137.600 140.115 C 137.600 139.651,136.738 140.383,135.215 142.141 M264.843 142.759 C 265.810 143.837,266.760 144.737,266.957 144.759 C 267.153 144.782,266.523 143.918,265.557 142.841 C 264.590 141.763,263.640 140.863,263.443 140.841 C 263.247 140.818,263.877 141.682,264.843 142.759 M132.744 145.100 C 131.593 146.489,131.106 147.200,131.304 147.200 C 131.414 147.200,131.986 146.570,132.573 145.800 C 133.663 144.371,133.795 143.832,132.744 145.100 M268.416 146.963 C 269.168 148.009,269.956 148.973,270.167 149.103 C 270.378 149.233,269.935 148.484,269.184 147.437 C 268.432 146.391,267.644 145.427,267.433 145.297 C 267.222 145.167,267.665 145.916,268.416 146.963 M130.344 148.300 C 129.193 149.689,128.706 150.400,128.904 150.400 C 129.014 150.400,129.586 149.770,130.173 149.000 C 131.263 147.571,131.395 147.032,130.344 148.300 M271.404 151.000 C 273.007 153.226,273.450 153.639,272.557 152.073 C 272.141 151.343,271.452 150.443,271.026 150.073 C 270.576 149.682,270.734 150.069,271.404 151.000 M125.853 154.900 L 125.133 156.200 125.958 155.200 C 126.689 154.313,127.014 153.600,126.686 153.600 C 126.624 153.600,126.249 154.185,125.853 154.900 M273.724 154.600 C 274.062 155.260,274.638 156.160,275.004 156.600 C 275.370 157.040,275.265 156.680,274.770 155.800 C 273.680 153.858,272.864 152.922,273.724 154.600 M123.429 158.743 C 122.525 160.493,122.656 160.841,123.623 159.255 C 124.074 158.515,124.357 157.823,124.251 157.718 C 124.145 157.612,123.776 158.073,123.429 158.743 M282.868 174.400 C 282.888 175.439,283.518 177.146,283.532 176.200 C 283.538 175.760,283.389 175.040,283.200 174.600 C 282.989 174.110,282.861 174.032,282.868 174.400 M283.656 177.600 C 283.656 177.930,283.811 178.560,284.000 179.000 C 284.217 179.504,284.344 179.578,284.344 179.200 C 284.344 178.870,284.189 178.240,284.000 177.800 C 283.783 177.296,283.656 177.222,283.656 177.600 M115.849 178.215 C 115.712 178.573,115.615 179.166,115.634 179.533 C 115.653 179.900,115.827 179.669,116.021 179.020 C 116.398 177.758,116.265 177.133,115.849 178.215 M115.056 181.284 C 114.921 181.788,114.827 182.560,114.846 183.000 C 114.865 183.440,115.045 183.098,115.246 182.240 C 115.636 180.578,115.470 179.740,115.056 181.284 M284.456 180.800 C 284.456 181.130,284.611 181.760,284.800 182.200 C 285.017 182.704,285.144 182.778,285.144 182.400 C 285.144 182.070,284.989 181.440,284.800 181.000 C 284.583 180.496,284.456 180.422,284.456 180.800 M285.477 186.200 C 285.600 187.520,285.768 188.675,285.850 188.767 C 286.118 189.064,285.915 186.234,285.580 185.000 C 285.365 184.211,285.330 184.622,285.477 186.200 M113.866 188.768 C 113.719 190.178,113.674 191.407,113.766 191.500 C 114.014 191.747,114.515 187.346,114.310 186.730 C 114.213 186.440,114.014 187.357,113.866 188.768 M286.546 195.400 C 286.547 197.600,286.614 198.449,286.695 197.287 C 286.776 196.124,286.776 194.324,286.693 193.287 C 286.611 192.249,286.545 193.200,286.546 195.400 M113.367 200.000 C 113.367 204.290,113.426 206.045,113.498 203.900 C 113.570 201.755,113.570 198.245,113.498 196.100 C 113.426 193.955,113.367 195.710,113.367 200.000 M286.546 204.600 C 286.547 206.800,286.614 207.649,286.695 206.487 C 286.776 205.324,286.776 203.524,286.693 202.487 C 286.611 201.449,286.545 202.400,286.546 204.600 M114.101 212.200 C 114.105 213.080,114.187 213.393,114.283 212.895 C 114.379 212.398,114.375 211.678,114.275 211.295 C 114.175 210.913,114.096 211.320,114.101 212.200 M285.701 212.600 C 285.705 213.480,285.787 213.793,285.883 213.295 C 285.979 212.798,285.975 212.078,285.875 211.695 C 285.775 211.313,285.696 211.720,285.701 212.600 M114.828 217.233 C 114.844 217.765,115.019 218.560,115.219 219.000 C 115.471 219.558,115.507 219.315,115.338 218.200 C 115.055 216.343,114.787 215.836,114.828 217.233 M284.846 217.667 C 284.821 218.034,284.696 218.664,284.570 219.067 C 284.352 219.762,284.363 219.763,284.797 219.087 C 285.048 218.696,285.173 218.066,285.073 217.687 C 284.911 217.068,284.888 217.066,284.846 217.667 M115.606 220.633 C 115.609 221.055,115.795 221.670,116.018 222.000 C 116.315 222.438,116.352 222.276,116.156 221.400 C 115.827 219.929,115.598 219.610,115.606 220.633 M283.829 221.429 C 283.681 222.015,283.638 222.572,283.732 222.666 C 283.827 222.760,284.024 222.358,284.171 221.771 C 284.319 221.185,284.362 220.628,284.268 220.534 C 284.173 220.440,283.976 220.842,283.829 221.429 M283.029 224.629 C 282.881 225.215,282.838 225.772,282.932 225.866 C 283.027 225.960,283.224 225.558,283.371 224.971 C 283.519 224.385,283.562 223.828,283.468 223.734 C 283.373 223.640,283.176 224.042,283.029 224.629 M274.708 243.700 C 273.833 245.049,273.048 246.656,273.487 246.200 C 274.048 245.617,275.698 242.800,275.479 242.800 C 275.376 242.800,275.029 243.205,274.708 243.700 M125.786 245.100 C 126.135 245.815,126.506 246.400,126.610 246.400 C 127.008 246.400,126.752 245.763,125.967 244.800 L 125.152 243.800 125.786 245.100 M271.315 249.100 C 270.412 250.365,269.101 252.165,268.402 253.100 C 267.703 254.035,267.229 254.800,267.350 254.800 C 267.567 254.800,271.198 250.004,272.573 247.900 C 273.873 245.911,272.992 246.752,271.315 249.100 M129.375 250.532 C 129.991 251.339,130.576 252.000,130.675 252.000 C 130.953 252.000,129.221 249.660,128.709 249.344 C 128.459 249.189,128.759 249.724,129.375 250.532 M131.591 253.588 C 132.057 254.241,132.642 254.902,132.891 255.056 C 133.141 255.211,132.841 254.676,132.225 253.868 C 130.888 252.115,130.384 251.892,131.591 253.588 M261.002 261.326 C 257.133 265.244,256.164 266.360,258.272 264.470 C 260.966 262.055,267.601 255.133,267.132 255.226 C 267.060 255.241,264.301 257.986,261.002 261.326 M136.549 259.322 C 138.501 261.455,140.186 263.200,140.293 263.200 C 140.551 263.200,134.026 256.061,133.450 255.715 C 133.203 255.566,134.597 257.189,136.549 259.322 M140.841 263.443 C 140.863 263.640,141.763 264.590,142.841 265.557 C 143.918 266.523,144.782 267.153,144.759 266.957 C 144.737 266.760,143.837 265.810,142.759 264.843 C 141.682 263.877,140.818 263.247,140.841 263.443 M145.297 267.433 C 145.427 267.644,146.391 268.432,147.437 269.184 C 148.484 269.935,149.233 270.378,149.103 270.167 C 148.973 269.956,148.009 269.168,146.963 268.416 C 145.916 267.665,145.167 267.222,145.297 267.433 M250.800 270.055 C 246.745 273.070,245.865 273.819,247.800 272.606 C 250.672 270.806,255.405 267.108,254.700 267.215 C 254.645 267.223,252.890 268.502,250.800 270.055 M150.073 271.026 C 150.443 271.452,151.343 272.141,152.073 272.557 C 153.639 273.450,153.226 273.007,151.000 271.404 C 150.069 270.734,149.682 270.576,150.073 271.026 M153.600 273.379 C 153.600 273.489,154.140 273.859,154.800 274.200 C 155.460 274.541,156.000 274.731,156.000 274.621 C 156.000 274.511,155.460 274.141,154.800 273.800 C 154.140 273.459,153.600 273.269,153.600 273.379 M244.500 274.226 C 243.565 274.787,242.800 275.340,242.800 275.455 C 242.800 275.671,245.499 274.138,246.180 273.536 C 246.867 272.928,246.227 273.191,244.500 274.226 M174.600 283.200 C 175.040 283.389,175.760 283.538,176.200 283.532 C 176.843 283.523,176.804 283.457,176.000 283.200 C 174.632 282.762,173.581 282.762,174.600 283.200 M224.200 283.200 C 223.696 283.417,223.622 283.544,224.000 283.544 C 224.330 283.544,224.960 283.389,225.400 283.200 C 225.904 282.983,225.978 282.856,225.600 282.856 C 225.270 282.856,224.640 283.011,224.200 283.200 M177.800 284.000 C 178.240 284.189,178.870 284.344,179.200 284.344 C 179.578 284.344,179.504 284.217,179.000 284.000 C 178.560 283.811,177.930 283.656,177.600 283.656 C 177.222 283.656,177.296 283.783,177.800 284.000 M221.000 284.000 C 220.496 284.217,220.422 284.344,220.800 284.344 C 221.130 284.344,221.760 284.189,222.200 284.000 C 222.704 283.783,222.778 283.656,222.400 283.656 C 222.070 283.656,221.440 283.811,221.000 284.000 M181.000 284.800 C 181.440 284.989,182.070 285.144,182.400 285.144 C 182.778 285.144,182.704 285.017,182.200 284.800 C 181.760 284.611,181.130 284.456,180.800 284.456 C 180.422 284.456,180.496 284.583,181.000 284.800 M218.000 284.800 C 217.176 285.064,217.141 285.126,217.800 285.154 C 218.240 285.173,218.870 285.013,219.200 284.800 C 219.901 284.347,219.414 284.347,218.000 284.800 M185.000 285.580 C 186.234 285.915,189.064 286.118,188.767 285.850 C 188.675 285.768,187.520 285.600,186.200 285.477 C 184.622 285.330,184.211 285.365,185.000 285.580 M211.905 285.883 C 212.402 285.979,213.122 285.975,213.505 285.875 C 213.887 285.775,213.480 285.696,212.600 285.701 C 211.720 285.705,211.407 285.787,211.905 285.883 M193.513 286.695 C 194.676 286.776,196.476 286.776,197.513 286.693 C 198.551 286.611,197.600 286.545,195.400 286.546 C 193.200 286.547,192.351 286.614,193.513 286.695 M202.713 286.695 C 203.876 286.776,205.676 286.776,206.713 286.693 C 207.751 286.611,206.800 286.545,204.600 286.546 C 202.400 286.547,201.551 286.614,202.713 286.695 " stroke="none" fill="#e46c84" fill-rule="evenodd"></path><path id="path4" d="" stroke="none" fill="#e47c8c" fill-rule="evenodd"></path></g></svg>